<?xml version="1.0" encoding="utf-8"?>
<!-- Generator: Adobe Illustrator 19.1.0, SVG Export Plug-In . SVG Version: 6.00 Build 0)  -->
<svg version="1.1" id="Layer_1" xmlns="http://www.w3.org/2000/svg" xmlns:xlink="http://www.w3.org/1999/xlink" x="0px" y="0px"
	 viewBox="0 0 522.9 114.8" style="enable-background:new 0 0 522.9 114.8;" xml:space="preserve">
<style type="text/css">
	.st0{clip-path:url(#SVGID_2_);fill:#66737B;}
	.st1{clip-path:url(#SVGID_2_);fill:#00B5CC;}
	.st2{clip-path:url(#SVGID_2_);fill:#D6E03D;}
</style>
<g>
	<defs>
		<rect id="SVGID_1_" width="522.9" height="114.8"/>
	</defs>
	<clipPath id="SVGID_2_">
		<use xlink:href="#SVGID_1_"  style="overflow:visible;"/>
	</clipPath>
	<path class="st0" d="M166.7,40.6h16.8c7.6,0,12.2,3.5,12.2,11.1c0,4.3-2.7,7.8-6.9,9.1l7.7,13.5H187l-6.6-12.1h-5.3v12.1h-8.4V40.6
		z M175.1,55.9h7.7c2.7,0,4.5-1.4,4.5-4.5c0-3.1-1.8-4.5-4.5-4.5h-7.7V55.9z"/>
	<path class="st0" d="M217.2,75.2c-10.7,0-17-8.3-17-17.8c0-9.5,6.3-17.8,17-17.8c10.7,0,17,8.3,17,17.8
		C234.2,66.9,227.9,75.2,217.2,75.2 M217.2,46.7c-4.9,0-8.6,3.1-8.6,10.7c0,4.9,2,10.7,8.6,10.7c6.2,0,8.6-5.5,8.6-10.7
		C225.8,52.1,223.4,46.7,217.2,46.7"/>
	<path class="st0" d="M239.2,40.6h16.7c9.1,0,12.4,4.7,12.4,11.4c0,4.5-2.5,11.4-14,11.4h-6.6v10.9h-8.5V40.6z M247.6,57.1h7.1
		c3.8,0,5.2-2.5,5.2-5.1c0-3.4-1.6-5.2-5.4-5.2h-6.9V57.1z"/>
	<rect x="273.4" y="40.6" class="st0" width="8.4" height="33.6"/>
	<path class="st0" d="M310.6,51.8c-1.2-3.1-4.1-5.1-7-5.1c-4.6,0-8.3,3.1-8.3,10.7c0,4.9,2,10.7,8.6,10.7c2.3,0,5.6-1.7,6.9-4.7
		l6.7,3.2c-2.9,5.2-7.9,8.6-13.6,8.6c-10.7,0-17-8.3-17-17.8c0-9.5,5.9-17.8,16.4-17.8c6.6,0,11,3.2,14.1,8.8L310.6,51.8z"/>
	<path class="st0" d="M332,40.6h8.7l12.7,33.6h-9l-1.7-5.3h-12.4l-1.7,5.3h-9L332,40.6z M340.7,62.7l-4.2-13.9h-0.1l-4.2,13.9H340.7
		z"/>
	<polygon class="st0" points="358,40.6 366.4,40.6 366.4,67.1 379.6,67.1 379.6,74.2 358,74.2 	"/>
	<path class="st0" d="M400,40.6h13c10.3,0,17.2,4.9,17.2,16.8c0,12-6.9,16.8-17.2,16.8h-13V40.6z M408.4,67.1h4.8
		c6.3,0,8.6-4.3,8.6-9.7c0-5.4-2.3-9.7-8.6-9.7h-4.8V67.1z"/>
	<path class="st0" d="M444.3,40.6h8.7l12.7,33.6h-9l-1.7-5.3h-12.4l-1.7,5.3h-9L444.3,40.6z M452.9,62.7l-4.2-13.9h-0.1l-4.2,13.9
		H452.9z"/>
	<polygon class="st0" points="464.4,40.6 490.4,40.6 490.4,47.1 481.6,47.1 481.6,74.2 473.2,74.2 473.2,47.1 464.4,47.1 	"/>
	<path class="st0" d="M501.5,40.6h8.7l12.7,33.6h-9l-1.7-5.3h-12.4l-1.7,5.3h-9L501.5,40.6z M510.1,62.7L506,48.8h-0.1l-4.2,13.9
		H510.1z"/>
	<path class="st1" d="M24,11.8c-5.7,4.3-9.9,8.8-13.6,14.8l39,22.1L24,11.8z"/>
	<path class="st1" d="M67.2,0.7L61.9,55l53.8,9.1c0-0.4,0.1-0.8,0.1-1.1c1.5-15.2-3.1-30.2-12.8-42C94,9.9,81.3,2.7,67.2,0.7"/>
	<path class="st1" d="M58.2,0C47.6,0,37.9,2.8,28.8,8.5l27.9,40.7l4.8-49.1C60.4,0,59.2,0,58.2,0"/>
	<path class="st1" d="M70.3,113.6l-12.9-50l-32.9,39.8c10,7.5,21.6,11.4,33.8,11.4C62.3,114.8,66.3,114.4,70.3,113.6"/>
	<path class="st1" d="M24,11.8c-5.7,4.3-9.9,8.8-13.6,14.8l39,22.1L24,11.8z"/>
	<path class="st2" d="M16.9,76.3L39,73.9l-18.4-2c1.6-1.5,3.4-2.9,5.6-4.3l17.8-1.9l-11.7-1.3c5.7-2.5,12.9-4.7,22-6.3l0,0L7.6,31.6
		C1.9,42.9,0,55.6,2.2,67.8C3.9,77,8,85.7,13.9,93.1C12.9,87.8,13.2,81.9,16.9,76.3"/>
	<path class="st1" d="M62.7,61L89.4,106c13-7.9,22-20.7,25.4-36.3L62.7,61z"/>
	<polygon class="st0" points="135.9,40.6 161.9,40.6 161.9,47.1 153.1,47.1 153.1,74.2 144.7,74.2 144.7,47.1 135.9,47.1 	"/>
</g>
</svg>
